<svg fill="none" height="447" viewBox="0 0 450 447" width="450" xmlns="http://www.w3.org/2000/svg" xmlns:xlink="http://www.w3.org/1999/xlink"><radialGradient id="a" cx="0" cy="0" gradientTransform="matrix(-3.45660663 279.242607 -662.05927912 -8.19530558 230.192 160.49)" gradientUnits="userSpaceOnUse" r="1"><stop offset=".317831" stop-color="#2b014b"/><stop offset=".545967" stop-color="#490082"/></radialGradient><radialGradient id="b" cx="0" cy="0" gradientTransform="matrix(34.5172736 18.88121529 -15.00811841 27.43675773 171.794 162.216)" gradientUnits="userSpaceOnUse" r="1"><stop offset="0" stop-color="#48027e"/><stop offset="1" stop-color="#210139"/></radialGradient><radialGradient id="c" cx="0" cy="0" gradientTransform="matrix(-23.8965442 -38.05745698 37.47267945 -23.52935829 218.702 143.924)" gradientUnits="userSpaceOnUse" r="1"><stop offset="0" stop-color="#1d0033"/><stop offset="1" stop-color="#3e006f"/></radialGradient><mask id="d" height="447" maskUnits="userSpaceOnUse" width="450" x="0" y="0"><path d="m0 0h450v447h-450z" fill="#540e8a"/></mask><g mask="url(#d)"><path d="m0 0h450v447h-450z" fill="#540e8a"/><path clip-rule="evenodd" d="m194.807 184.577c0-5.395 1.619-9.525 4.499-12.428-2.951-17.094-1.96-35.348 9.952-47.991 16.357-17.361 31.618-22.065 52.186-20.007 1.169-.036 2.362-.055 3.579-.055 3.456 0 15.221 1.874 11.799 2.361-.163.023-.325.046-.488.07.357.074.715.149 1.074.225 9.441-3.54 20.881-6.404 30.687-1.476 12.807 6.437 6.196 30.682 6.196 30.682s-.296-.104-.85-.286c10.614 20.088 6.878 50.054-4.503 82.21 2.303 10.065-4.528 23.351-13.206 32.324 25.321 3.814 48.463 9.337 58.528 16.689 4.756 3.473 8.838 9.885 12.344 18.343h-254.163c3.784-6.497 8.244-11.741 13.481-15.393 12.673-8.838 26.29-12.161 43.353-16.324 8.608-2.1 18.093-4.414 28.777-7.759 3.675-7.969 5.995-9.386 12.93-12.345 1.456-5.845 2.799-11.432 3.962-16.373-1.196-2.3-3.578-7.073-6.19-13.395-8.575-2.165-13.947-9.246-13.947-19.072z" fill="#460c73" fill-rule="evenodd"/><path d="m-32.4766 265.42h492.369v207.693h-492.369z" fill="url(#a)" transform="matrix(.99978498 .02073652 -.02073652 .99978498 5.496903 .730523)"/><path d="m194.524 183.161 53.696 6.49-11.802 104.732s-78.076 3.499-66.093-23.012c9.734-21.536 24.199-88.21 24.199-88.21z" fill="#ffceae"/><path d="m181.825 231.839c-21.832 6.834-61.62 10.252-80.686 23.549-54.571 38.057-24.7818 248.996-24.7818 248.996l286.7448-52.808s.302-174.356-33.625-199.138c-12.463-9.104-60.032-13.224-85.403-17.944-15.341 12.981-25.077 43.958-30.387 56.054-7.671-14.751-12.096-46.613-31.862-58.709z" fill="#104594"/><path d="m246.14 233.905c-12.096 1.18-32.452 56.939-32.452 56.939s13.349-25.339 25.076-39.238c7.966-9.441 17.362-18.675 7.376-17.701z" fill="#0c3676"/><path d="m196.288 242.755c8.898 22.966 17.405 47.498 17.405 47.498s-22.776-45.186-31.863-54.578c-7.136-7.376 5.313-16.522 14.458 7.08z" fill="#0c3676"/><path d="m193.195 104.544c15.926-18.2907 62.237-17.4056 86.724 5.016 24.487 22.421 16.226 68.739-4.72 115.942-20.947 47.203-82.011-41.892-82.011-41.892s-28.895-45.874.007-79.066z" fill="#ffceae" fill-opacity=".99"/><path d="m194.213 156.61-3.241 47.202s-35.402-63.724-6.495-94.405c20.316-21.5645 38.943-23.6018 68.15-17.4064 9.44-3.5403 20.88-6.4039 30.686-1.4756 12.808 6.437 6.196 30.682 6.196 30.682s-45.435-16.016-64.019 1.77c-4.425 26.847-11.21 31.272-11.21 31.272z" fill="#130121" stroke="#000"/><path d="m206.016 171.839c0 11.895-4.332 17.754-16.226 17.754-11.895 0-19.767-7.872-19.767-19.766 0-11.895 7.872-17.642 19.767-17.642 11.894 0 16.226 7.76 16.226 19.654z" fill="url(#b)"/><path d="m240.24 89.3457c3.456 0 15.222 1.8736 11.8 2.3602-62.25 8.8511-58.119 61.3641-58.119 61.3641l-13.275 1.475s-12.687-65.1992 59.594-65.1993z" fill="url(#c)"/><path clip-rule="evenodd" d="m211.924 156.905c4.724 0 5.02 44.843 31.01 49.857 5.573-6.784 13.538-18.88 32.157-14.456 18.259 8.852 7.048 33.339-6.814 45.73-16.709 11.866-54.578-23.897-54.578-23.897s-12.694-13.571-1.775-57.234zm56.353 54.874c9.23 2.307 1.176 24.781 11.207 0 1.959-4.841.885-11.801-4.393-14.161-8.321-3.721-23.965 0-23.04 9.144 2.72 26.873 10.326 3.542 16.226 5.017z" fill="#2d0b01" fill-rule="evenodd"/><path d="m276.233 186.111c-3.836 0-4.721.59-6.491.885 0 0 3.084.19 5.016.59 1.642.341 4.13 1.181 4.13 1.181 1.349-.3-1.273-2.656-2.655-2.656z" fill="#e3ac88"/><path d="m111.912 313.264c-.304-3.211 1.383-32.136 1.473-28.912 1.27 45.728 3.836 57.234 3.836 57.234l-3.836 3.54s.591-10.03-1.473-31.862z" fill="#0c3676"/><path d="m356.943 435.311c-14.16-29.797-54.283-12.096-54.283-12.096l-19.348 3.85h-52.808l5.605 49.858s142.235 3.417 120.834-41.612z" fill="#dfab93"/><path d="m-33.832 333.685s275.253-28.027 289.414-18.881c14.161 9.145 30.682 148.099 23.306 157.54-7.375 9.44-282.33306 17.996-282.33306 17.996z" fill="#270143"/><path d="m133.95 397.823 20.811-2.194 3.109 29.489c-3.145 1.411-6.348 2.543-9.609 3.398-3.26.855-6.997 1.505-11.21 1.949-6.235.658-11.617-.024-16.146-2.046-4.536-2.077-8.17-5.3-10.902-9.669-2.683-4.431-4.358-9.821-5.028-16.168-.663-6.291-.002-11.87 1.984-16.736 1.986-4.867 5.148-8.807 9.488-11.82 4.39-3.075 9.87-4.96 16.442-5.653 3.37-.355 6.577-.381 9.619-.077 3.098.298 5.998.873 8.701 1.724l-2.172 6.874c-2.235-.73-4.736-1.29-7.504-1.68-2.711-.395-5.499-.442-8.363-.14-7.19.758-12.579 3.513-16.167 8.264-3.532 4.746-4.901 10.882-4.108 18.409.504 4.774 1.709 8.935 3.617 12.483 1.958 3.485 4.703 6.092 8.236 7.821 3.527 1.672 7.987 2.224 13.38 1.656 2.64-.279 4.872-.656 6.696-1.132 1.824-.477 3.473-.991 4.948-1.544l-1.883-17.862-13.228 1.394z" fill="#fff"/><path d="m294.528 299.399c-.502-3.186 1.68-19.156 1.769-15.931.796 28.678-.515 55.325 0 77.295.83 35.438 6.786 61.364 6.786 61.364l-3.541-2.065s-4.462-29.531-5.015-59.299c-.434-23.401 2.212-47.34.001-61.364z" fill="#0c3676"/></g></svg>